HIERARCHY
ROOT Hips
{
	OFFSET 0.000000 0.000000 0.000000
	CHANNELS 6 Xposition Yposition Zposition Zrotation Yrotation Xrotation 
	JOINT LHipJoint
	{
		OFFSET 0.000000 0.000000 0.000000
		CHANNELS 3 Zrotation Yrotation Xrotation
		JOINT LeftUpLeg
		{
			OFFSET 1.363060 -1.794630 0.839290
			CHANNELS 3 Zrotation Yrotation Xrotation
			JOINT LeftLeg
			{
				OFFSET 2.448110 -6.726130 0.000000
				CHANNELS 3 Zrotation Yrotation Xrotation
				JOINT LeftFoot
				{
					OFFSET 2.562200 -7.039590 0.000000
					CHANNELS 3 Zrotation Yrotation Xrotation
					JOINT LeftToeBase
					{
						OFFSET 0.157640 -0.433110 2.322550
						CHANNELS 3 Zrotation Yrotation Xrotation
						End Site
						{
							OFFSET 0.000000 0.000000 0.000000
						}
					}
				}
			}
		}
	}
	JOINT RHipJoint
	{
		OFFSET 0.000000 0.000000 0.000000
		CHANNELS 3 Zrotation Yrotation Xrotation
		JOINT RightUpLeg
		{
			OFFSET -1.305520 -1.794630 0.839290
			CHANNELS 3 Zrotation Yrotation Xrotation
			JOINT RightLeg
			{
				OFFSET -2.542530 -6.985550 0.000000
				CHANNELS 3 Zrotation Yrotation Xrotation
				JOINT RightFoot
				{
					OFFSET -2.568260 -7.056230 0.000000
					CHANNELS 3 Zrotation Yrotation Xrotation
					JOINT RightToeBase
					{
						OFFSET -0.164730 -0.452590 2.363150
						CHANNELS 3 Zrotation Yrotation Xrotation
						End Site
						{
							OFFSET 0.000000 0.000000 0.000000
						}
					}
				}
			}
		}
	}
	JOINT LowerBack
	{
		OFFSET 0.000000 0.000000 0.000000
		CHANNELS 3 Zrotation Yrotation Xrotation
		JOINT Spine
		{
			OFFSET 0.028270 2.035590 -0.193380
			CHANNELS 3 Zrotation Yrotation Xrotation
			JOINT Spine1
			{
				OFFSET 0.056720 2.048850 -0.042750
				CHANNELS 3 Zrotation Yrotation Xrotation
				JOINT Neck
				{
					OFFSET 0.000000 0.000000 0.000000
					CHANNELS 3 Zrotation Yrotation Xrotation
					JOINT Neck1
					{
						OFFSET -0.054170 1.746240 0.172020
						CHANNELS 3 Zrotation Yrotation Xrotation
						JOINT Head
						{
							OFFSET 0.104070 1.761360 -0.123970
							CHANNELS 3 Zrotation Yrotation Xrotation
							End Site
							{
								OFFSET 0.000000 0.000000 0.000000
							}
						}
					}
				}
				JOINT LeftShoulder
				{
					OFFSET 0.000000 0.000000 0.000000
					CHANNELS 3 Zrotation Yrotation Xrotation
					JOINT LeftArm
					{
						OFFSET 3.362410 1.200890 -0.311210
						CHANNELS 3 Zrotation Yrotation Xrotation
						JOINT LeftForeArm
						{
							OFFSET 4.983000 -0.000000 -0.000000
							CHANNELS 3 Zrotation Yrotation Xrotation
							JOINT LeftHand
							{
								OFFSET 3.483560 -0.000000 -0.000000
								CHANNELS 3 Zrotation Yrotation Xrotation
								JOINT LeftFingerBase
								{
									OFFSET 0.000000 0.000000 0.000000
									CHANNELS 3 Zrotation Yrotation Xrotation
									JOINT LeftHandIndex1
									{
										OFFSET 0.715260 -0.000000 -0.000000
										CHANNELS 3 Zrotation Yrotation Xrotation
										End Site
										{
											OFFSET 0.000000 0.000000 0.000000
										}
									}
								}
								JOINT LThumb
								{
									OFFSET 0.000000 0.000000 0.000000
									CHANNELS 3 Zrotation Yrotation Xrotation
									End Site
									{
										OFFSET 0.000000 0.000000 0.000000
									}
								}
							}
						}
					}
				}
				JOINT RightShoulder
				{
					OFFSET 0.000000 0.000000 0.000000
					CHANNELS 3 Zrotation Yrotation Xrotation
					JOINT RightArm
					{
						OFFSET -3.136600 1.374050 -0.404650
						CHANNELS 3 Zrotation Yrotation Xrotation
						JOINT RightForeArm
						{
							OFFSET -5.241900 -0.000000 -0.000000
							CHANNELS 3 Zrotation Yrotation Xrotation
							JOINT RightHand
							{
								OFFSET -3.444170 -0.000000 -0.000000
								CHANNELS 3 Zrotation Yrotation Xrotation
								JOINT RightFingerBase
								{
									OFFSET 0.000000 0.000000 0.000000
									CHANNELS 3 Zrotation Yrotation Xrotation
									JOINT RightHandIndex1
									{
										OFFSET -0.622530 -0.000000 -0.000000
										CHANNELS 3 Zrotation Yrotation Xrotation
										End Site
										{
											OFFSET 0.000000 0.000000 0.000000
										}
									}
								}
								JOINT RThumb
								{
									OFFSET 0.000000 0.000000 0.000000
									CHANNELS 3 Zrotation Yrotation Xrotation
									End Site
									{
										OFFSET 0.000000 0.000000 0.000000
									}
								}
							}
						}
					}
				}
			}
		}
	}
}
MOTION
Frames: 9
Frame Time: 0.008333
0.138563 17.223922 0.127251 5.934192 72.278185 39.352782 -7.841627 -0.409224 -0.037679 -18.947757 1.747226 -58.907371 -4.676562 0.121570 10.613295 -0.244373 0.644703 12.443063 1.006300 0.000000 -50.571900 11.349430 -0.826432 -3.517019 9.709862 -6.000691 -27.754031 1.051373 -2.868780 39.235439 -0.302988 0.222224 6.161637 -0.079500 0.000001 -65.010700 -3.109715 2.245965 6.721552 -0.998454 2.647140 -1.680995 -3.526006 2.679846 -0.274938 3.615419 -5.666816 -4.408261 -0.356602 -0.057810 0.533271 0.000000 0.000000 0.000000 4.651951 21.808970 0.859214 -67.450283 35.281083 26.775969 -179.656630 -79.572549 -179.994627 -1.552787 2.285323 -0.030600 0.058909 0.111692 0.000000 0.000000 0.000000 0.000000 0.000000 0.000000 0.000000 -7.875554 0.986093 -3.403926 73.547925 12.653972 15.058417 179.941833 78.474345 179.924674 -10.175122 9.184682 -0.889339 0.182525 -0.617231 -0.000000 0.000000 0.000000 0.000000 0.000000 0.000000 0.000000 
0.338602 17.178281 0.163269 5.304836 71.764407 38.739713 -7.825808 -0.409028 -0.049107 -18.753505 1.822366 -59.081185 -4.607345 0.225500 11.619679 -0.202450 0.811390 11.937105 1.052500 0.000000 -49.883600 11.455320 -0.827064 -3.487978 9.344336 -5.964282 -27.926183 0.945762 -2.985314 40.853775 -0.358589 -0.034538 5.773801 -0.121600 -0.000000 -64.124700 -3.417931 2.221534 6.664688 -1.051701 2.635400 -1.687647 -3.502456 2.668644 -0.231427 3.569518 -5.663715 -4.592737 -0.353210 -0.054440 0.483226 0.000000 0.000000 0.000000 4.573784 22.024303 0.941736 -67.963265 34.423985 26.135227 -179.639264 -79.309115 -179.994117 -1.680287 2.126328 -0.030487 0.061612 0.121896 0.000000 0.000000 0.000000 0.000000 0.000000 0.000000 0.000000 -7.991416 1.060484 -3.383147 73.915974 12.364797 15.512845 179.939363 78.501749 179.927758 -9.732014 9.090540 -0.841666 0.172273 -0.614562 -0.000000 0.000000 0.000000 0.000000 0.000000 0.000000 0.000000 
0.536269 17.121289 0.198609 4.768489 71.249669 38.208499 -7.805373 -0.413523 -0.054000 -18.432168 1.776114 -59.264533 -4.494498 0.357808 13.003653 -0.124814 1.128836 11.093120 1.136499 -0.000000 -48.726300 11.564445 -0.811102 -3.480973 8.957515 -5.965286 -28.197041 0.833813 -3.119010 42.724516 -0.429819 -0.412691 5.137709 -0.187500 0.000000 -63.241101 -3.731877 2.186647 6.628692 -1.105713 2.613460 -1.691777 -3.479627 2.647343 -0.198274 3.541126 -5.633777 -4.784160 -0.356117 -0.051334 0.430445 0.000000 0.000000 0.000000 4.476772 22.208131 1.031296 -68.499513 33.490277 25.431008 -179.620750 -79.037082 -179.993673 -1.759329 1.987428 -0.029463 0.063070 0.132494 0.000000 0.000000 0.000000 0.000000 0.000000 0.000000 0.000000 -8.073354 1.166706 -3.354277 74.260408 12.034692 15.919883 179.937511 78.499613 179.930572 -9.313258 9.003770 -0.797593 0.162235 -0.612354 -0.000000 0.000000 0.000000 0.000000 0.000000 0.000000 0.000000 
0.731470 17.053190 0.233125 4.316115 70.733608 37.750328 -7.778273 -0.421925 -0.058915 -18.035811 1.634155 -59.488119 -4.347187 0.518572 14.769477 -0.016279 1.550371 9.901248 1.230600 0.000000 -47.161700 11.676801 -0.780087 -3.491689 8.547574 -5.998892 -28.560801 0.714859 -3.268505 44.818794 -0.515255 -0.901931 4.290186 -0.267601 -0.000000 -62.372700 -4.049250 2.142211 6.615169 -1.160245 2.582182 -1.693800 -3.459144 2.616924 -0.178313 3.525361 -5.573168 -4.980555 -0.366534 -0.048614 0.375410 0.000000 0.000000 0.000000 4.344762 22.362418 1.125219 -69.033025 32.477694 24.678896 -179.600236 -78.742475 -179.993324 -1.786777 1.861185 -0.027626 0.063120 0.143654 0.000000 0.000000 0.000000 0.000000 0.000000 0.000000 0.000000 -8.123811 1.309079 -3.318100 74.587388 11.654327 16.264196 179.936640 78.463575 179.933079 -8.921003 8.935564 -0.758021 0.152352 -0.610911 -0.000000 0.000000 0.000000 0.000000 0.000000 0.000000 0.000000 
0.924174 16.974353 0.266312 3.892924 70.213541 37.312190 -7.746588 -0.435715 -0.077175 -17.622347 1.458414 -59.812566 -4.176853 0.715146 16.961191 0.114391 1.996398 8.335758 1.294000 0.000000 -45.168500 11.787020 -0.739251 -3.511919 8.132771 -6.042251 -29.007883 0.587665 -3.430596 47.102016 -0.613733 -1.493256 3.273794 -0.352100 -0.000001 -61.516499 -4.354140 2.092111 6.627279 -1.212141 2.545018 -1.693936 -3.442147 2.580928 -0.174938 3.512893 -5.478203 -5.179899 -0.385266 -0.046379 0.318652 0.000000 0.000000 0.000000 4.153276 22.488591 1.220458 -69.536756 31.384737 23.894472 -179.576671 -78.413110 -179.993094 -1.762478 1.742431 -0.025174 0.061615 0.155504 0.000000 0.000000 0.000000 0.000000 0.000000 0.000000 0.000000 -8.151097 1.492827 -3.274939 74.903607 11.214486 16.531404 179.937175 78.397248 179.935262 -8.555832 8.892985 -0.723250 0.142539 -0.610368 -0.000000 0.000000 0.000000 0.000000 0.000000 0.000000 0.000000 
1.113919 16.885551 0.298703 3.537931 69.682620 36.927696 -7.705426 -0.454216 -0.117446 -17.249353 1.269631 -60.237828 -3.992315 0.943038 19.538053 0.266598 2.461643 6.436928 1.315300 0.000001 -42.959100 11.901291 -0.686670 -3.538780 7.687475 -6.099245 -29.533321 0.451636 -3.605566 49.544781 -0.721248 -2.151573 2.126358 -0.425799 0.000000 -60.662200 -4.664157 2.036368 6.670625 -1.265686 2.502527 -1.691899 -3.431608 2.540153 -0.191347 3.504314 -5.347892 -5.379598 -0.414275 -0.044810 0.260658 0.000000 0.000000 0.000000 3.896960 22.580836 1.316025 -69.986805 30.201296 23.091974 -179.549244 -78.046858 -179.993000 -1.688640 1.636320 -0.022207 0.058447 0.167898 0.000000 0.000000 0.000000 0.000000 0.000000 0.000000 0.000000 -8.146077 1.719428 -3.223518 75.218868 10.709455 16.705247 179.939443 78.303699 179.937094 -8.218801 8.878010 -0.693276 0.132738 -0.610846 -0.000000 0.000000 0.000000 0.000000 0.000000 0.000000 0.000000 
1.300686 16.787578 0.329570 3.157779 69.135151 36.509026 -7.663003 -0.483931 -0.192246 -16.938224 1.140910 -60.821594 -3.800494 1.210582 22.532669 0.433342 2.888111 4.203010 1.266500 -0.000000 -40.482200 12.009349 -0.629631 -3.563018 7.250407 -6.130029 -30.126628 0.304901 -3.788345 52.110164 -0.835978 -2.864156 0.892287 -0.481399 0.000000 -59.792101 -4.950107 1.982757 6.746646 -1.315192 2.461496 -1.688742 -3.428517 2.501425 -0.232821 3.487007 -5.179777 -5.575324 -0.453675 -0.044005 0.202694 0.000000 0.000000 0.000000 3.545538 22.629932 1.408833 -70.361217 28.932301 22.277687 -179.516670 -77.639047 -179.993065 -1.567736 1.543819 -0.019025 0.053445 0.180801 0.000000 0.000000 0.000000 0.000000 0.000000 0.000000 0.000000 -8.123250 1.994116 -3.162930 75.542394 10.131438 16.773477 179.943917 78.190621 179.938570 -7.910179 8.888819 -0.667603 0.122884 -0.612258 -0.000000 0.000000 0.000000 0.000000 0.000000 0.000000 0.000000 
1.483873 16.681722 0.359480 2.781552 68.563086 36.079975 -7.617758 -0.526091 -0.307939 -16.715198 1.090011 -61.539708 -3.605972 1.510890 25.870878 0.615697 3.298994 1.707802 1.152000 0.000000 -37.926400 12.116239 -0.566271 -3.583198 6.802849 -6.133549 -30.781816 0.146979 -3.978846 54.768600 -0.952619 -3.590375 -0.393840 -0.508500 0.000000 -58.890500 -5.226351 1.932953 6.860845 -1.364412 2.423929 -1.684070 -3.435523 2.466932 -0.302369 3.462211 -4.976204 -5.762418 -0.505098 -0.044156 0.145786 0.000000 0.000000 0.000000 3.101151 22.620870 1.498364 -70.646717 27.567646 21.458950 -179.478457 -77.203310 -179.993311 -1.402505 1.479521 -0.015926 0.046469 0.193808 0.000000 0.000000 0.000000 0.000000 0.000000 0.000000 0.000000 -8.070787 2.314333 -3.089965 75.882928 9.479755 16.726522 179.950887 78.075625 179.939669 -7.633804 8.918022 -0.645829 0.113042 -0.614395 -0.000000 0.000000 0.000000 0.000000 0.000000 0.000000 0.000000 
1.663110 16.569437 0.388546 2.393822 67.961617 35.624596 -7.573122 -0.583425 -0.468137 -16.581520 1.140783 -62.376535 -3.410822 1.839037 29.485118 0.812778 3.708335 -0.977889 0.974400 -0.000000 -35.392700 12.221069 -0.497574 -3.597113 6.350748 -6.095848 -31.492476 -0.022718 -4.175181 57.489280 -1.066646 -4.299736 -1.699597 -0.503000 0.000000 -57.944799 -5.489466 1.890868 7.015247 -1.413299 2.393446 -1.678152 -3.454362 2.440348 -0.402908 3.427181 -4.741172 -5.934574 -0.569035 -0.045408 0.091557 0.000000 0.000000 0.000000 2.562465 22.534904 1.583343 -70.835033 26.103727 20.637294 -179.434292 -76.757872 -179.993773 -1.194224 1.458184 -0.013013 0.037343 0.206476 0.000000 0.000000 0.000000 0.000000 0.000000 0.000000 0.000000 -7.985619 2.675163 -3.001616 76.248792 8.757126 16.561460 179.960647 77.978540 179.940368 -7.395547 8.956040 -0.627855 0.103343 -0.616933 -0.000000 0.000000 0.000000 0.000000 0.000000 0.000000 0.000000 
